<svg id="Layer_1" data-name="Layer 1" xmlns="http://www.w3.org/2000/svg" width="12.56" height="12.41" viewBox="0 0 12.56 12.41"><path d="M6,.3H6.4a6.07,6.07,0,0,1,4.22,1.9,6,6,0,0,1,1.54,3.07,7.82,7.82,0,0,1,.11.83v.5a6.22,6.22,0,0,1-.82,2.79,6.25,6.25,0,0,1-3.4,2.72,7.77,7.77,0,0,1-1.76.29H6.15a6.17,6.17,0,0,1-4.29-1.86A6.29,6.29,0,0,1,.18,6.21V6.13A.32.32,0,0,1,.21,6s0,0,0,0a6.7,6.7,0,0,1,.93-2.82A6.06,6.06,0,0,1,4.54.55,5.84,5.84,0,0,1,6,.3ZM5.22,4.17l0,1.1s0,.08-.11.11H4.54V6.63h.61s.07,0,.11.11V10H6.55V6.71a.07.07,0,0,1,.07-.08h1a3.62,3.62,0,0,0,.18-1.17V5.38H6.62s-.07,0-.07-.07V4.45c0-.36.21-.57.64-.61H7.9V2.77c0-.07-.25-.1-.75-.1H7a1.54,1.54,0,0,0-1.61.92A3.8,3.8,0,0,0,5.22,4.17Z"/></svg>