<svg id="Layer_1" data-name="Layer 1" xmlns="http://www.w3.org/2000/svg" width="12.56" height="12.41" viewBox="0 0 12.56 12.41"><path d="M5.79.32h.86A6,6,0,0,1,9.8,1.46a6.27,6.27,0,0,1,1.93,2.4A6,6,0,0,1,12.26,6v.5a6.15,6.15,0,0,1-1.64,4,6.17,6.17,0,0,1-4.44,1.86A6,6,0,0,1,1,9.43,6.48,6.48,0,0,1,.18,6.32,6.21,6.21,0,0,1,2.25,1.78,6.09,6.09,0,0,1,5.79.32ZM3,5.54V7.4a2.06,2.06,0,0,0,1,2,7.85,7.85,0,0,0,2.79.19c1.2,0,1.89-.14,2.07-.4a1.92,1.92,0,0,0,.61-1.61V5.22a1.8,1.8,0,0,0-1-1.86L8,3.21l-.45,0H4.93A1.81,1.81,0,0,0,3.07,4.54,5.72,5.72,0,0,0,3,5.54ZM5,3.75h2.5c.91,0,1.36.48,1.36,1.43V7.72Q8.72,9,7.79,9h-1c-.49,0-1,0-1.54,0-.9,0-1.42-.29-1.57-.86a10.14,10.14,0,0,1-.07-1.43V6c0-1.19.09-1.79.28-1.79A1.29,1.29,0,0,1,5,3.75ZM4.58,6.43A1.65,1.65,0,0,0,5.9,8h.72A1.68,1.68,0,0,0,7.9,6.4V6.32a1.68,1.68,0,0,0-.68-1.25,1.7,1.7,0,0,0-1-.32h0A1.56,1.56,0,0,0,4.68,5.9,1.54,1.54,0,0,0,4.58,6.43ZM6.22,5.32h0a1,1,0,0,1,1,.83.58.58,0,0,1,0,.25c-.11.74-.47,1.11-1.07,1.11a1.08,1.08,0,0,1-1-.72.82.82,0,0,1-.07-.36C5.23,5.69,5.59,5.32,6.22,5.32Zm1.36-.6c.1.24.24.35.4.35s.29-.11.39-.35c-.06-.29-.2-.44-.44-.44A.44.44,0,0,0,7.58,4.72Z"/></svg>