<svg id="Layer_1" data-name="Layer 1" xmlns="http://www.w3.org/2000/svg" width="48" height="48" viewBox="0 0 48 48"><defs><style>.cls-1{fill:#fff;}</style></defs><g id="Layer_2" data-name="Layer 2"><path class="cls-1" d="M30,42.25H18A12.3,12.3,0,0,1,5.75,30V18A12.3,12.3,0,0,1,18,5.75H30A12.3,12.3,0,0,1,42.25,18V30A12.3,12.3,0,0,1,30,42.25ZM18,9.35A8.68,8.68,0,0,0,9.35,18V30A8.68,8.68,0,0,0,18,38.65H30A8.68,8.68,0,0,0,38.65,30V18A8.68,8.68,0,0,0,30,9.35Z"/><circle class="cls-1" cx="33.92" cy="14.32" r="0.41"/><path class="cls-1" d="M33.92,16.53a2.22,2.22,0,1,1,2.22-2.21A2.21,2.21,0,0,1,33.92,16.53Zm0-3.6a1.39,1.39,0,1,0,1.39,1.39A1.39,1.39,0,0,0,33.92,12.93Z"/><path class="cls-1" d="M24,33.7A9.7,9.7,0,1,1,33.7,24,9.71,9.71,0,0,1,24,33.7Zm0-15.79A6.1,6.1,0,1,0,30.1,24,6.09,6.09,0,0,0,24,17.91Z"/></g></svg>