<svg xmlns="http://www.w3.org/2000/svg" viewBox="0 0 342.6 301"><defs><style>.cls-1{fill:#020202;}.cls-1,.cls-5,.cls-6{stroke:#231f20;}.cls-1,.cls-2,.cls-3,.cls-4,.cls-5,.cls-6,.cls-8,.cls-9{stroke-miterlimit:10;}.cls-2{stroke:#232021;}.cls-2,.cls-3,.cls-4{stroke-width:4px;}.cls-3{stroke:#262223;}.cls-4{stroke:#272728;}.cls-5{fill:#e8e6e7;}.cls-7,.cls-8{fill:#424142;}.cls-8{stroke:#262326;stroke-width:0.25px;}.cls-9{fill:#fff;stroke:#fff;stroke-width:2px;}.cls-10{font-size:39px;font-family:Arya-Triple, Arya;}.cls-11{letter-spacing:-0.09em;}</style></defs><g id="Layer_1" data-name="Layer 1"><path class="cls-1" d="M366.48,224.35A150,150,0,0,1,111.23,331.22l1.89-2.37-3-2.34-1.61,2A150,150,0,1,1,366.48,224.35Z" transform="translate(-32.59 -73.85)"/></g><g id="Layer_2" data-name="Layer 2"><circle class="cls-2" cx="183.88" cy="150.5" r="135.11"/><circle class="cls-3" cx="183.88" cy="150.5" r="109.17"/><circle class="cls-4" cx="183.88" cy="147.35" r="79.61"/><circle class="cls-5" cx="183.88" cy="150.5" r="49.06"/><circle class="cls-6" cx="183.88" cy="150.5" r="16.19"/><rect class="cls-7" y="15.39" width="41.05" height="87.88"/><rect class="cls-7" x="16.21" y="90.73" width="8.63" height="143.91"/><path class="cls-7" d="M109.4,345.38,104.11,352a.46.46,0,0,1-.64.07L49,308.67a.44.44,0,0,1-.07-.63l5.29-6.64a.44.44,0,0,1,.63-.07l30.43,24.24-1.05,1.31,20.15,16.06,1-1.32,3.91,3.12A.46.46,0,0,1,109.4,345.38Z" transform="translate(-32.59 -73.85)"/><ellipse class="cls-7" cx="20.22" cy="208.73" rx="11.01" ry="13.23"/><polygon class="cls-8" points="78.64 257.37 76.94 259.49 78.45 260.7 72.81 267.77 71.77 269.09 51.62 253.03 52.66 251.72 58.3 244.64 74 257.15 75.97 254.68 77.58 252.66 80.53 255 78.64 257.37"/><rect class="cls-9" x="33.88" y="126.15" width="300" height="52.86"/><text class="cls-10" transform="translate(34.21 165.56)">VIN<tspan class="cls-11" x="70.78" y="0">T</tspan><tspan x="89.58" y="0">AGE VINYL</tspan></text></g></svg>