<?xml version="1.0" encoding="utf-8"?>
<!-- Svg Vector Icons : http://www.onlinewebfonts.com/icon -->
<!DOCTYPE svg PUBLIC "-//W3C//DTD SVG 1.1//EN" "http://www.w3.org/Graphics/SVG/1.1/DTD/svg11.dtd">
<svg version="1.1" xmlns="http://www.w3.org/2000/svg" xmlns:xlink="http://www.w3.org/1999/xlink" x="0px" y="0px" viewBox="0 0 1000 1000" enable-background="new 0 0 1000 1000" xml:space="preserve">
<metadata> Svg Vector Icons : http://www.onlinewebfonts.com/icon </metadata>
<g><g><path d="M642.7,855.7l341.4-341.5c7.9-7.9,7.9-20.6,0-28.5L642.7,144.3c-7.9-7.9-20.6-7.9-28.5,0l-91,91c-3.8,3.8-5.9,8.9-5.9,14.2c0,5.3,2.1,10.5,5.9,14.2l146.4,146.4H30.1c-11.1,0-20.1,9-20.1,20.1v139.4c0,11.1,9,20.1,20.1,20.1h639.5L523.2,736.2c-7.6,7.6-7.6,20.9,0,28.5l91,91c3.8,3.8,8.9,5.9,14.2,5.9C633.8,861.6,638.9,859.5,642.7,855.7z"/></g><g></g><g></g><g></g><g></g><g></g><g></g><g></g><g></g><g></g><g></g><g></g><g></g><g></g><g></g><g></g></g>
</svg>